<svg width="112" height="29" viewBox="0 0 112 29" fill="none" xmlns="http://www.w3.org/2000/svg">
<path d="M31.5229 16.0401V13.0264C31.5229 12.503 31.0706 12.0786 30.5127 12.0786L1.0105 12.0786C0.452547 12.0786 0.000228882 12.503 0.000228882 13.0264V16.0401C0.000228882 16.5636 0.452547 16.9879 1.0105 16.9879H30.5127C31.0706 16.9879 31.5229 16.5636 31.5229 16.0401Z" fill="#8470F9"/>
<path d="M4.83501 5.0325H13.5718C13.8167 5.03271 14.0533 4.94946 14.2377 4.79821L19.1831 0.733734C19.2956 0.641624 19.4285 0.574054 19.5721 0.535879C19.7158 0.497705 19.8667 0.489874 20.0139 0.512957C20.1612 0.53604 20.3012 0.589462 20.4238 0.669375C20.5464 0.749288 20.6487 0.853708 20.7231 0.975121L22.9139 4.56748C23.0029 4.71205 23.1309 4.83212 23.285 4.91561C23.439 4.99911 23.6138 5.04309 23.7918 5.04315H26.6901C26.9578 5.04408 27.2142 5.14424 27.4034 5.32178C27.5927 5.49933 27.6994 5.73985 27.7004 5.99093V9.00469C27.6994 9.25577 27.5927 9.4963 27.4034 9.67384C27.2142 9.85139 26.9578 9.95154 26.6901 9.95247H4.83501C4.56706 9.95247 4.3101 9.85262 4.12064 9.67487C3.93117 9.49713 3.82474 9.25606 3.82474 9.00469V5.98739C3.82374 5.86233 3.84913 5.73832 3.89945 5.6225C3.94978 5.50669 4.02404 5.40137 4.11795 5.3126C4.21186 5.22384 4.32357 5.15339 4.44664 5.10532C4.5697 5.05724 4.7017 5.0325 4.83501 5.0325Z" fill="#8470F9"/>
<path d="M4.83498 23.8572H13.5717C13.8171 23.8583 14.0537 23.9428 14.2377 24.095L19.1831 28.1595C19.2956 28.2516 19.4284 28.3192 19.5721 28.3574C19.7158 28.3956 19.8666 28.4034 20.0139 28.3803C20.1612 28.3572 20.3012 28.3038 20.4238 28.2239C20.5464 28.144 20.6486 28.0395 20.7231 27.9181L22.9139 24.3364C23.0024 24.1912 23.1301 24.0704 23.2843 23.9863C23.4384 23.9021 23.6134 23.8576 23.7918 23.8572H26.6901C26.8228 23.8572 26.9542 23.8327 27.0767 23.7851C27.1993 23.7374 27.3107 23.6676 27.4045 23.5796C27.4983 23.4916 27.5727 23.3871 27.6235 23.2721C27.6743 23.1571 27.7004 23.0339 27.7004 22.9094V19.8992C27.7004 19.6478 27.594 19.4068 27.4045 19.229C27.215 19.0513 26.9581 18.9514 26.6901 18.9514H4.83498C4.70217 18.951 4.57058 18.9752 4.44778 19.0226C4.32498 19.0701 4.21341 19.1399 4.1195 19.228C4.02559 19.3161 3.95119 19.4208 3.9006 19.536C3.85 19.6512 3.82421 19.7746 3.82471 19.8992V22.9094C3.82421 23.034 3.85 23.1575 3.9006 23.2727C3.95119 23.3879 4.02559 23.4925 4.1195 23.5806C4.21341 23.6687 4.32498 23.7386 4.44778 23.786C4.57058 23.8335 4.70217 23.8577 4.83498 23.8572Z" fill="#8470F9"/>
<path d="M49.1891 14.5279C50.8692 13.6831 51.8378 12.2418 51.8378 10.1759C51.8378 6.79651 49.0832 4.70215 44.6486 4.70215H36.9297V23.2106H40.8459V16.0223H44.3232C46.2681 16.0223 47.021 16.4057 47.4902 18.3119L48.6481 23.2106H52.7119L51.2362 17.6339C50.82 16.104 50.207 15.1278 49.1891 14.5279ZM44.4594 13.1399H40.8346V7.60941H44.5464C46.6389 7.60941 47.8232 8.70628 47.8232 10.3605C47.8232 12.0147 46.6691 13.1399 44.4632 13.1399H44.4594Z" fill="#8470F9"/>
<path d="M60.889 8.21631C56.9766 8.21631 54.4566 10.1758 53.9609 13.4132H57.703C57.9339 12.0217 58.8912 11.0987 60.6582 11.0987C62.7203 11.0987 63.6852 12.1033 63.6852 13.9811V14.3361C61.0744 14.3645 59.0728 14.5278 57.0106 15.1845C54.6306 15.9158 53.4463 17.4102 53.4463 19.4016C53.4463 22.2024 55.6144 23.6223 58.6679 23.6223C59.6481 23.6385 60.6179 23.4312 61.4938 23.0182C62.3697 22.6052 63.1257 21.9987 63.6966 21.251V23.2247H67.4198V13.9953C67.4198 10.6018 65.2177 8.21631 60.889 8.21631ZM63.6776 17.112C63.6887 17.6196 63.592 18.1241 63.3931 18.5963C63.1943 19.0684 62.8973 19.4988 62.5194 19.8622C62.1416 20.2256 61.6904 20.5148 61.1922 20.713C60.694 20.9113 60.1588 21.0145 59.6176 21.0168C58.1041 21.0168 57.1809 20.3068 57.1809 19.1957C57.1809 17.7261 58.3955 16.5547 63.6776 16.4731V17.112Z" fill="#8470F9"/>
<path d="M73.3598 3.61621H69.6479V23.2145H73.3598V3.61621Z" fill="#8470F9"/>
<path d="M79.2816 8.62134H75.5659V23.2109H79.2816V8.62134Z" fill="#8470F9"/>
<path d="M79.2816 3.61621H75.5659V6.98849H79.2816V3.61621Z" fill="#8470F9"/>
<path d="M89.1457 8.21658C88.3333 8.20818 87.5319 8.3933 86.8165 8.75463C86.1011 9.11595 85.4952 9.64167 85.0554 10.2825V8.62126H81.3511V28.4999H85.0668V21.6347C85.5145 22.2628 86.1243 22.7744 86.8395 23.1219C87.5546 23.4695 88.3519 23.6417 89.157 23.6226C93.1641 23.6226 95.7143 20.8466 95.7143 15.8912C95.703 11.1238 93.2095 8.21658 89.1457 8.21658ZM88.4797 20.7331C86.304 20.7331 85.0743 18.9937 85.0743 15.8912C85.0743 12.7887 86.2624 11.099 88.4797 11.099C90.6554 11.099 91.8851 12.81 91.8851 15.8912C91.8851 18.9724 90.6857 20.7331 88.4797 20.7331Z" fill="#8470F9"/>
<path d="M104.572 8.3623C100.032 8.3623 97.1108 11.1382 97.1108 16.0866C97.1108 20.8539 99.9525 23.7683 104.572 23.7683C109.068 23.7683 112 20.9924 112 16.0866C112 11.3122 109.151 8.3623 104.572 8.3623ZM104.572 20.8788C102.219 20.8788 100.944 19.1678 100.944 16.0866C100.944 13.0054 102.192 11.2447 104.572 11.2447C106.892 11.2447 108.167 12.9876 108.167 16.0866C108.167 19.1855 106.918 20.8965 104.572 20.8965V20.8788Z" fill="#8470F9"/>
</svg>
